<svg id="visual" viewBox="0 0 900 600" width="900" height="600" xmlns="http://www.w3.org/2000/svg" xmlns:xlink="http://www.w3.org/1999/xlink" version="1.1"><path d="M0 534L13.7 544C27.3 554 54.7 574 82 567.2C109.3 560.3 136.7 526.7 163.8 523.3C191 520 218 547 245.2 549.2C272.3 551.3 299.7 528.7 327 514.7C354.3 500.7 381.7 495.3 409 495.7C436.3 496 463.7 502 491 520C518.3 538 545.7 568 573 575.3C600.3 582.7 627.7 567.3 654.8 564.8C682 562.3 709 572.7 736.2 563.2C763.3 553.7 790.7 524.3 818 521.7C845.3 519 872.7 543 886.3 555L900 567L900 601L886.3 601C872.7 601 845.3 601 818 601C790.7 601 763.3 601 736.2 601C709 601 682 601 654.8 601C627.7 601 600.3 601 573 601C545.7 601 518.3 601 491 601C463.7 601 436.3 601 409 601C381.7 601 354.3 601 327 601C299.7 601 272.3 601 245.2 601C218 601 191 601 163.8 601C136.7 601 109.3 601 82 601C54.7 601 27.3 601 13.7 601L0 601Z" fill="#f6f54d"></path><path d="M0 520L13.7 528.3C27.3 536.7 54.7 553.3 82 555.8C109.3 558.3 136.7 546.7 163.8 541.5C191 536.3 218 537.7 245.2 534.8C272.3 532 299.7 525 327 518.7C354.3 512.3 381.7 506.7 409 512.5C436.3 518.3 463.7 535.7 491 550C518.3 564.3 545.7 575.7 573 577.7C600.3 579.7 627.7 572.3 654.8 566.8C682 561.3 709 557.7 736.2 560.3C763.3 563 790.7 572 818 566C845.3 560 872.7 539 886.3 528.5L900 518L900 601L886.3 601C872.7 601 845.3 601 818 601C790.7 601 763.3 601 736.2 601C709 601 682 601 654.8 601C627.7 601 600.3 601 573 601C545.7 601 518.3 601 491 601C463.7 601 436.3 601 409 601C381.7 601 354.3 601 327 601C299.7 601 272.3 601 245.2 601C218 601 191 601 163.8 601C136.7 601 109.3 601 82 601C54.7 601 27.3 601 13.7 601L0 601Z" fill="#6dd782"></path><path d="M0 598L13.7 590.5C27.3 583 54.7 568 82 567C109.3 566 136.7 579 163.8 580.8C191 582.7 218 573.3 245.2 562.8C272.3 552.3 299.7 540.7 327 545.2C354.3 549.7 381.7 570.3 409 570.8C436.3 571.3 463.7 551.7 491 551.7C518.3 551.7 545.7 571.3 573 571.5C600.3 571.7 627.7 552.3 654.8 550.8C682 549.3 709 565.7 736.2 573.3C763.3 581 790.7 580 818 581.5C845.3 583 872.7 587 886.3 589L900 591L900 601L886.3 601C872.7 601 845.3 601 818 601C790.7 601 763.3 601 736.2 601C709 601 682 601 654.8 601C627.7 601 600.3 601 573 601C545.7 601 518.3 601 491 601C463.7 601 436.3 601 409 601C381.7 601 354.3 601 327 601C299.7 601 272.3 601 245.2 601C218 601 191 601 163.8 601C136.7 601 109.3 601 82 601C54.7 601 27.3 601 13.7 601L0 601Z" fill="#00a89f"></path><path d="M0 576L13.7 572.2C27.3 568.3 54.7 560.7 82 558.2C109.3 555.7 136.7 558.3 163.8 556.8C191 555.3 218 549.7 245.2 555.5C272.3 561.3 299.7 578.7 327 578.3C354.3 578 381.7 560 409 551.2C436.3 542.3 463.7 542.7 491 546.5C518.3 550.3 545.7 557.7 573 566.7C600.3 575.7 627.7 586.3 654.8 589.3C682 592.3 709 587.7 736.2 586C763.3 584.3 790.7 585.7 818 585.2C845.3 584.7 872.7 582.3 886.3 581.2L900 580L900 601L886.3 601C872.7 601 845.3 601 818 601C790.7 601 763.3 601 736.2 601C709 601 682 601 654.8 601C627.7 601 600.3 601 573 601C545.7 601 518.3 601 491 601C463.7 601 436.3 601 409 601C381.7 601 354.3 601 327 601C299.7 601 272.3 601 245.2 601C218 601 191 601 163.8 601C136.7 601 109.3 601 82 601C54.7 601 27.3 601 13.7 601L0 601Z" fill="#007494"></path><path d="M0 565L13.7 568.7C27.3 572.3 54.7 579.7 82 581.5C109.3 583.3 136.7 579.7 163.8 578C191 576.3 218 576.7 245.2 575.3C272.3 574 299.7 571 327 573.2C354.3 575.3 381.7 582.7 409 587C436.3 591.3 463.7 592.7 491 591.7C518.3 590.7 545.7 587.3 573 582.2C600.3 577 627.7 570 654.8 568C682 566 709 569 736.2 573.7C763.3 578.3 790.7 584.7 818 587.5C845.3 590.3 872.7 589.7 886.3 589.3L900 589L900 601L886.3 601C872.7 601 845.3 601 818 601C790.7 601 763.3 601 736.2 601C709 601 682 601 654.8 601C627.7 601 600.3 601 573 601C545.7 601 518.3 601 491 601C463.7 601 436.3 601 409 601C381.7 601 354.3 601 327 601C299.7 601 272.3 601 245.2 601C218 601 191 601 163.8 601C136.7 601 109.3 601 82 601C54.7 601 27.3 601 13.7 601L0 601Z" fill="#143f6b"></path></svg>